<?xml version="1.0" encoding="utf-8"?>
<!-- Generator: Adobe Illustrator 27.0.0, SVG Export Plug-In . SVG Version: 6.00 Build 0)  -->
<svg version="1.1" id="Layer_1" xmlns="http://www.w3.org/2000/svg" xmlns:xlink="http://www.w3.org/1999/xlink" x="0px" y="0px"
	 viewBox="0 0 758.59 276.98" style="enable-background:new 0 0 758.59 276.98;" xml:space="preserve">
<style type="text/css">
	.st0{fill:#FFFFFF;}
</style>
<g>
	<path class="st0" d="M8.51,276.98c-1.51,0-2.67-0.42-3.33-0.92c-1.67-1.25-4.52-6.99-5.09-17.07
		c-1.07-19.09,5.96-59.08,63.79-115.26c4.85-21.88,7.19-38.33,5.84-41.24c-0.35-0.75-0.03-1.64,0.73-1.99
		c0.75-0.35,1.64-0.03,1.99,0.73c1.67,3.59-0.34,18.77-4.61,38.72c0.24-0.22,0.48-0.45,0.72-0.68c0.04-0.04,0.09-0.08,0.13-0.11
		c15.67-11.64,37.5-18.92,38.42-19.22c0.79-0.26,1.64,0.17,1.89,0.95c0.26,0.79-0.17,1.63-0.95,1.89
		c-0.22,0.07-22.24,7.42-37.51,18.73c-1.31,1.24-2.6,2.47-3.86,3.69c-6.02,26.86-15.63,60.72-25.7,86.7
		c-13.03,33.6-23.46,42.85-29.91,44.7C10.14,276.87,9.28,276.98,8.51,276.98z M62.67,149.15C9.34,202.16,2.31,239.81,3.05,257.95
		c0.4,9.88,3.19,15.11,3.94,15.71c0,0,1.1,0.71,3.39,0.02c4.74-1.44,14.65-8.92,27.81-42.86C48.18,205.04,56.88,174.19,62.67,149.15
		z"/>
</g>
<g>
	<path class="st0" d="M174.88,157.97c-0.88,0-1.74-0.06-2.56-0.19c-4.84-0.74-10.8-4.07-11.73-15.8
		c-0.62-7.91,0.17-14.73,1.93-20.51c-3.84,1.43-9.31,3.09-17.1,4.86c-4.42,1-7.98,0.91-10.81,0.24c-0.57,2.28-1.26,4.84-2.08,7.71
		c-4.5,15.75-14.11,20.98-21.14,19.16c-6.49-1.67-12-9.87-8.76-23.91c6.16-26.71,22.53-29.06,23.22-29.15
		c0.82-0.1,1.57,0.48,1.67,1.3c0.1,0.82-0.48,1.57-1.29,1.67c-0.61,0.08-15.02,2.31-20.68,26.85c-2.79,12.08,1.46,19.01,6.59,20.33
		c5.66,1.46,13.56-3.26,17.51-17.08c0.7-2.45,1.45-5.15,2.12-7.83c-2.71-1.19-4.48-2.9-5.57-4.26c-3.51-4.4-3.83-10.03-2.36-13.09
		c0.89-1.85,2.44-2.91,4.25-2.91l0.69,0c2.74-0.01,5.32-0.03,6.93,2.09c1.57,2.06,2.02,5.8-0.38,16.19
		c2.72,0.63,5.91,0.56,9.43-0.24c9.65-2.19,15.54-4.16,19.08-5.65c4.14-10.17,11.41-16.58,18.65-19.59
		c6.32-2.63,12.11-2.34,14.74,0.73c2.37,2.77,2.41,7.05,0.11,12.05c-3.43,7.45-11.58,15.43-18.25,15.43
		c-6.52,0-9.27-4.23-10.16-7.81c-0.7,0.41-1.59,0.88-2.73,1.4c-2.21,5.92-3.3,13.15-2.62,21.79c0.63,7.95,3.63,12.22,9.19,13.07
		c16.52,2.52,49.24-25.79,51.93-32.51c0.31-0.77,1.18-1.14,1.95-0.84c0.77,0.31,1.14,1.18,0.84,1.95
		C224.4,131.12,193.52,157.96,174.88,157.97z M170.08,114.33c0.16,0,0.33,0.03,0.5,0.08c0.61,0.2,1,0.81,1,1.45
		c0.01,0.76,0.26,7.5,7.5,7.5c4.83,0,12.23-6.52,15.53-13.68c1.03-2.24,2.45-6.38,0.33-8.84c-1.45-1.69-5.8-2.2-11.32,0.09
		c-5.76,2.39-11.54,7.17-15.44,14.58c0.51-0.35,0.71-0.56,0.74-0.6C169.21,114.53,169.64,114.33,170.08,114.33z M129.31,108.36
		c-0.17,0-0.34,0-0.51,0l-0.71,0c-0.24,0-0.97,0-1.55,1.21c-1.09,2.27-0.64,6.6,2,9.92c1.07,1.34,2.39,2.39,3.94,3.15
		c1.39-6.11,2.16-11.63,0.84-13.38C132.7,108.45,131.38,108.36,129.31,108.36z"/>
</g>
<g>
	<path class="st0" d="M452.97,160.08c-1.37,0-2.59-0.31-3.64-0.92c-9.39-5.48-3.8-26.13,0.52-38.32
		c-7.4,8.43-20.34,21.41-31.49,23.5c-4.43,0.82-7.84-0.75-9.6-4.46c-1.21-2.55-1.55-6.05-1.1-10.07
		c-8.11,7.85-20.99,18.26-30.01,15.48c-8.69-2.67-9.42-12.89-9.96-20.36c-0.22-3.02-0.55-7.58-1.6-7.58
		c-2.5,0.21-11.65,13.38-17.11,21.25c-9.88,14.23-13.88,19.58-16.71,19.35c-0.56-0.05-1.08-0.33-1.46-0.79
		c-1.59-1.94-1.06-7.97,0.74-23.46c1.58-13.64,4.21-36.29,0.32-39.52c-9.96-0.52-21.22,25.26-28.73,42.37
		c-6.13,13.98-8.37,18.82-11.15,18.53c-1.18-0.12-1.98-1.1-2.37-2.91c-1.82-8.48,3.64-27.18,6.08-34.83
		c0.08-0.24,7.81-24.44,11.44-25.97c0.82-0.35,1.71-0.08,2.2,0.65c2.29,3.43-3.41,13.46-5.97,17.62c-0.43,0.7-1.34,0.92-2.04,0.51
		c-5.05,14.12-10.45,33.53-8.77,41.38c1.74-2.25,4.96-9.6,7.84-16.17c8.42-19.21,19.98-45.51,32.17-44.12
		c0.21,0.02,0.41,0.09,0.59,0.2c5.49,3.24,4.03,19.71,1.37,42.62c-0.92,7.95-2.05,17.66-1.56,20.59c2.55-1.9,8.85-10.97,13.55-17.74
		c10.64-15.32,16.03-22.54,19.57-22.54c3.84,0,4.19,4.8,4.59,10.36c0.5,6.97,1.13,15.64,7.85,17.71c8.13,2.51,21.97-9.42,30.08-17.8
		c2.5-10.05,9.02-21.85,18.51-29.91c5.9-5.02,11.32-7.2,16.15-6.49c0.81-0.11,1.61-0.11,2.4-0.01c4.78,0.62,8.3,5.09,10.44,13.27
		c0.21,0.8-0.26,1.61-1.05,1.83c-0.8,0.22-1.61-0.24-1.84-1.04c-0.03-0.09-2.62-8.84-9.06-10.79c-0.31-0.09-0.62-0.17-0.94-0.23
		c-9.65,1.73-23.13,22.07-27.82,30.34c-0.05,0.08-0.1,0.16-0.16,0.23c-0.23,0.27-1.69,1.97-3.98,4.36
		c-1.17,5.06-1.16,9.5,0.22,12.39c1.17,2.46,3.25,3.38,6.34,2.8c15.24-2.86,35.44-29.37,35.64-29.64c0.46-0.6,1.3-0.77,1.95-0.39
		c0.66,0.38,0.92,1.2,0.62,1.89c-4.46,10.29-14.08,38.12-5.18,43.31c1.79,1.05,4.78,0.5,8.64-1.59
		c11.91-6.43,27.47-24.1,35.96-38.92c5.12-21.28,6-21.16,7.59-20.95c1.8,0.24,1.68,2.47,1.56,4.83c-0.25,4.74-2.66,10.85-6.36,17.36
		c-1.17,4.86-2.41,10.19-3.62,15.5c7.03-15.12,19.04-34.44,34.48-34.44c0.83,0,1.5,0.67,1.5,1.5s-0.67,1.5-1.5,1.5
		c-22.62,0-38.41,49.45-38.57,49.95c-0.24,0.76-1.04,1.21-1.81,1c-0.78-0.2-1.25-0.98-1.08-1.76c0.03-0.13,2.7-12.57,5.67-25.4
		c-9.33,13.58-22.58,27.18-32.39,32.47C457.87,159.26,455.21,160.08,452.97,160.08z M332.36,154.98L332.36,154.98L332.36,154.98z
		 M431.34,95.2c-0.75,0.55-1.51,1.15-2.28,1.81c-6.8,5.78-12.06,13.72-15.24,21.32C416.55,113.72,423.54,102.58,431.34,95.2z"/>
</g>
<g>
	<path class="st0" d="M536.08,206.36c-0.55,0-1.08-0.3-1.34-0.83c-0.42-0.84-10.05-21.32,6.88-94.01
		c5.51-23.66,11.63-43.45,16.82-58.34c-30.1-1.13-58.64,7.03-58.94,7.12c-22.64,5.29-22.8,4.74-23.28,3.13
		c-0.47-1.6,1.13-2.18,3.35-2.98c19.76-8.19,52.2-11.56,80.85-12.83c2.5-6.89,4.7-12.49,6.42-16.66
		c3.74-9.08,7.37-16.85,10.51-22.49c4.49-8.06,6.15-8.59,7.36-8.45c0.56,0.06,1.88,0.47,1.88,2.85c0,8.12-13.87,33.43-20.18,44.52
		c27.85-0.99,50.81-0.1,52.74-0.02c0.83,0.03,1.47,0.73,1.44,1.56c-0.03,0.83-0.69,1.48-1.56,1.44c-0.49-0.02-25-0.97-54.43,0.17
		c-0.67,1.16-1.1,1.89-1.22,2.09c-0.29,0.49-0.83,0.78-1.39,0.73c-0.16-0.01-0.32-0.02-0.47-0.03
		c-5.73,16.37-11.7,36.24-16.97,58.87c-16.59,71.22-7.21,91.8-7.12,92c0.36,0.74,0.05,1.64-0.69,2
		C536.53,206.31,536.3,206.36,536.08,206.36z M583.46,4.24c-3.37,4.25-10.5,18.19-18.53,39.67
		C571.94,31.44,582.21,11.95,583.46,4.24z"/>
</g>
<g>
	<path class="st0" d="M680.01,200.46c-2.42,0-4.31-0.85-5.45-2.51c-4.1-5.94,2.61-19.46,18.41-37.08
		c7.02-7.83,13.49-14.17,19.6-19.32c-4.96-11.99-10.09-15.66-13.57-18.15c-0.03-0.02-0.07-0.05-0.1-0.07
		c-8.63,18.02-18.73,23.45-24.29,25.08c-4.76,1.4-9.28,0.92-12.4-1.31c-3.87-2.76-5.6-11.18-7.43-20.1
		c-1.41-6.87-3.34-16.27-5.91-16.64c-0.08-0.01-0.16-0.02-0.24-0.02c-5.22,0-19.5,21.79-24.93,30.07c-1.33,2.02-2.48,3.78-3.38,5.1
		c-1.08,1.58-2.27,3.62-3.42,5.59c-3.93,6.75-6.28,10.54-9.12,9.72c-2.31-0.66-3.65-3.91-3.2-18.01c0.17-5.13,0.64-9.96,1.33-14.38
		c-9.83,11.73-22.5,23.55-31.13,25.38c-4.21,0.89-7.43-0.65-9.07-4.34c-8.23-18.51,7.42-44.31,8.09-45.4
		c0.43-0.71,1.36-0.92,2.06-0.49c0.71,0.43,0.92,1.36,0.49,2.06c-0.16,0.25-15.49,25.54-7.91,42.6c1.08,2.42,2.84,3.23,5.71,2.62
		c8.8-1.87,23.12-16.21,32.89-28.58c2.87-13.12,7.58-21.43,10.92-21.43c0.01,0,0.02,0,0.03,0c0.77,0.01,2.57,0.43,2.57,3.99
		c0,3.05-4.38,10.46-10.69,18.63c-1.17,5.42-2.07,11.91-2.31,19.42c-0.37,11.61,0.62,14.32,1.03,14.94c1.3-0.7,4.04-5.4,5.7-8.26
		c1.17-2.02,2.39-4.1,3.53-5.78c0.89-1.31,2.03-3.05,3.35-5.05c11.18-17.06,21.78-32.27,28.1-31.38c4.66,0.67,6.4,9.16,8.43,19.01
		c1.56,7.58,3.33,16.18,6.23,18.26c2.36,1.69,5.94,2.01,9.81,0.87c4.15-1.21,14.17-5.96,22.73-24.14c-1.77-1.77-2.34-3.83-0.82-8.02
		c2.26-6.2,11.83-11.81,19.36-15.58c2.67-2.19,5.34-3.84,7.73-4.37c1.49-0.33,2.89-0.64,3.38,0.76c0.49,1.43-0.22,1.76-4.15,3.6
		c-1.43,0.67-3.3,1.54-5.36,2.57c-5.97,5.03-12.44,13.32-15.21,17.25c-0.41,1.02-0.82,2-1.24,2.95c0.18,0.13,0.37,0.27,0.57,0.41
		c3.45,2.47,9.03,6.46,14.23,18.6c15.2-12.27,28.19-17.28,41.8-20.15c0.8-0.17,1.61,0.35,1.78,1.16c0.17,0.81-0.35,1.61-1.16,1.78
		c-13.38,2.82-26.15,7.79-41.23,20.13c0.11,0.29,0.22,0.59,0.33,0.88c9.97,26.91-15.62,50.05-30.87,55.92
		C683.55,200.06,681.66,200.46,680.01,200.46z M713.72,144.5c-5.77,4.95-11.89,10.97-18.52,18.36
		c-18.38,20.5-20.08,30.63-18.18,33.38c1.06,1.54,3.88,1.63,7.52,0.22C695.39,192.29,723.59,171.42,713.72,144.5z M706.88,105.86
		c-3.97,2.64-7.32,5.59-8.38,8.52c-0.69,1.9-0.9,2.98-0.59,3.85c0.27-0.62,0.53-1.26,0.79-1.92c0.04-0.11,0.1-0.21,0.16-0.3
		C699.14,115.6,702.46,110.89,706.88,105.86z M617.56,104.24c-1.25,1.21-3.51,5.09-5.58,11.44c3.44-4.96,5.6-8.99,5.6-10.82
		C617.58,104.62,617.57,104.41,617.56,104.24z"/>
</g>
<g>
	<path class="st0" d="M72.58,86.87c-0.21,0-0.42-0.04-0.63-0.14c-0.75-0.35-1.08-1.24-0.73-1.99c1.71-3.7,3.42-8.23,3.68-10.04
		c-0.34-0.17-0.61-0.47-0.74-0.86c-0.26-0.79,0.16-1.64,0.95-1.9c0.86-0.29,1.69-0.09,2.23,0.51c0.51,0.57,1.88,2.1-3.4,13.54
		C73.69,86.54,73.15,86.87,72.58,86.87z"/>
</g>
<g>
	<path class="st0" d="M582.59,92.87c-0.44,0-0.88-0.19-1.17-0.56c-3.89-4.86-0.25-10.03,2.21-12.09c0.64-0.53,1.58-0.44,2.11,0.19
		c0.53,0.64,0.44,1.58-0.19,2.11c-0.21,0.18-4.81,4.14-1.79,7.91c0.52,0.65,0.41,1.59-0.23,2.11
		C583.25,92.76,582.91,92.87,582.59,92.87z"/>
</g>
</svg>
